<?xml version="1.0" encoding="utf-8"?>
<!-- Generator: Adobe Illustrator 17.1.0, SVG Export Plug-In . SVG Version: 6.00 Build 0)  -->
<!DOCTYPE svg PUBLIC "-//W3C//DTD SVG 1.1//EN" "http://www.w3.org/Graphics/SVG/1.1/DTD/svg11.dtd">
<svg version="1.1" id="Layer_1" xmlns="http://www.w3.org/2000/svg" xmlns:xlink="http://www.w3.org/1999/xlink" x="0px" y="0px"
	 viewBox="0 0 138.4 43" enable-background="new 0 0 138.4 43" xml:space="preserve">
<g>
	<path fill="#7E4798" d="M122.6,0H15.8C7,0,0,6.8,0,15.2v12.6C0,36.2,7,42.9,15.8,43h106.9c8.7,0,15.8-6.8,15.8-15.2V15.2
		C138.4,6.8,131.4,0,122.6,0z"/>
</g>
<g>
	<path fill="#FFFFFF" d="M61.2,15.8h3.3c3.6,0,5.9,1.8,5.9,5.8s-2.3,5.9-5.7,5.9h-3.5V15.8z M64.4,25.4c2,0,3.3-1,3.3-3.8
		s-1.4-3.7-3.3-3.7h-0.5v7.5H64.4z"/>
	<path fill="#FFFFFF" d="M76.3,18.4c2.3,0,4.3,1.7,4.3,4.7s-2.1,4.7-4.3,4.7c-2.3,0-4.4-1.7-4.4-4.7S74,18.4,76.3,18.4z M76.3,25.6
		c1.1,0,1.6-1,1.6-2.5c0-1.5-0.6-2.5-1.6-2.5c-1.1,0-1.6,1-1.6,2.5C74.7,24.6,75.2,25.6,76.3,25.6z"/>
	<path fill="#FFFFFF" d="M82.4,18.6h2.2l0.2,1.1h0.1c0.8-0.7,1.7-1.3,2.9-1.3c1.9,0,2.8,1.4,2.8,3.6v5.5h-2.6v-5.2
		c0-1.3-0.3-1.7-1.1-1.7c-0.7,0-1.1,0.3-1.7,0.9v6h-2.6V18.6z"/>
	<path fill="#FFFFFF" d="M97.4,21.8C97.4,21,97,20.5,96,20.5c-0.8,0-1.5,0.3-2.4,0.8l-0.9-1.7c1.1-0.7,2.4-1.2,3.8-1.2
		c2.3,0,3.5,1.3,3.5,4v5.1h-2.2l-0.2-0.9h-0.1c-0.8,0.7-1.6,1.1-2.6,1.1c-1.6,0-2.6-1.2-2.6-2.7C92.4,23.1,93.9,22.1,97.4,21.8z
		 M96,25.7c0.6,0,1-0.3,1.5-0.8v-1.6c-1.9,0.3-2.5,0.8-2.5,1.5C94.9,25.4,95.3,25.7,96,25.7z"/>
	<path fill="#FFFFFF" d="M102.7,20.6h-1.2v-2l1.4-0.1l0.3-2.4h2.2v2.4h2.1v2.1h-2.1v3.6c0,1,0.4,1.4,1.2,1.4c0.3,0,0.6-0.1,0.8-0.2
		l0.4,1.9c-0.5,0.1-1.1,0.3-2,0.3c-2.2,0-3.1-1.4-3.1-3.5V20.6z"/>
	<path fill="#FFFFFF" d="M112.8,18.4c2.5,0,3.8,1.9,3.8,4.3c0,0.5-0.1,0.9-0.1,1.1h-5.3c0.2,1.4,1.1,1.9,2.3,1.9
		c0.7,0,1.3-0.2,1.9-0.6l0.9,1.6c-0.9,0.6-2.1,1-3.2,1c-2.6,0-4.5-1.7-4.5-4.7C108.5,20.1,110.6,18.4,112.8,18.4z M114.3,22.1
		c0-1-0.4-1.7-1.5-1.7c-0.8,0-1.5,0.6-1.7,1.7H114.3z"/>
</g>
<g>
	<path fill="#FFFFFF" d="M45.1,18.3c0-3.8-3.1-6.9-6.9-6.9c-2.7,0-5,1.5-6.2,3.8c-1.1-2.3-3.5-3.8-6.2-3.8c-3.8,0-6.9,3.1-6.9,6.9
		c0,7.2,11.6,15.2,13.1,15.2C33.5,33.5,45.1,25.6,45.1,18.3z"/>
</g>
</svg>
