<?xml version="1.0" encoding="utf-8"?>
<!-- Generator: Adobe Illustrator 17.1.0, SVG Export Plug-In . SVG Version: 6.00 Build 0)  -->
<!DOCTYPE svg PUBLIC "-//W3C//DTD SVG 1.1//EN" "http://www.w3.org/Graphics/SVG/1.1/DTD/svg11.dtd">
<svg version="1.1" id="Layer_1" xmlns="http://www.w3.org/2000/svg" xmlns:xlink="http://www.w3.org/1999/xlink" x="0px" y="0px"
	 viewBox="0 0 256.7 56.5" enable-background="new 0 0 256.7 56.5" xml:space="preserve">
<g>
	<path fill="#7E4798" d="M236,0H20.7C9.2,0,0,8.9,0,20v16.6c0,11.1,9.2,19.8,20.7,20H236c11.5,0,20.7-8.9,20.7-20V20
		C256.7,8.9,247.5,0,236,0z"/>
</g>
<g>
	<path fill="#FFFFFF" d="M60.3,22.8h3.3c4,0,6.2,2.3,6.2,6.5c0,4.2-2.2,6.6-6.1,6.6h-3.4V22.8z M63.4,34.5c3.1,0,4.6-1.9,4.6-5.3
		c0-3.3-1.5-5.1-4.6-5.1H62v10.4H63.4z"/>
	<path fill="#FFFFFF" d="M76.2,25.9c2.4,0,4.5,1.9,4.5,5.1c0,3.2-2.1,5.1-4.5,5.1c-2.4,0-4.5-1.9-4.5-5.1
		C71.7,27.8,73.8,25.9,76.2,25.9z M76.2,34.8c1.7,0,2.8-1.5,2.8-3.7c0-2.2-1.1-3.8-2.8-3.8c-1.7,0-2.8,1.5-2.8,3.8
		C73.4,33.3,74.5,34.8,76.2,34.8z"/>
	<path fill="#FFFFFF" d="M83.3,26.2h1.4l0.1,1.4h0.1c0.9-0.9,1.9-1.6,3.3-1.6c2,0,3,1.3,3,3.8v6.2h-1.6v-5.9c0-1.8-0.6-2.6-1.8-2.6
		c-1,0-1.7,0.5-2.7,1.5v7h-1.6V26.2z"/>
	<path fill="#FFFFFF" d="M99.7,29.7c0-1.2-0.4-2.4-2-2.4c-1.1,0-2.1,0.5-2.9,1l-0.7-1.1c0.9-0.6,2.3-1.3,3.8-1.3
		c2.4,0,3.4,1.6,3.4,4v6H100l-0.1-1.2h0c-0.9,0.8-2,1.4-3.2,1.4c-1.6,0-2.9-1-2.9-2.8C93.7,31.2,95.6,30.2,99.7,29.7z M97,34.8
		c0.9,0,1.7-0.5,2.7-1.3v-2.7c-3.3,0.4-4.4,1.2-4.4,2.4C95.3,34.3,96.1,34.8,97,34.8z"/>
	<path fill="#FFFFFF" d="M104.7,27.5h-1.4v-1.2l1.5-0.1l0.2-2.7h1.4v2.7h2.6v1.3h-2.6v5.4c0,1.2,0.4,1.9,1.5,1.9
		c0.3,0,0.8-0.1,1.1-0.3l0.3,1.2c-0.5,0.2-1.2,0.4-1.8,0.4c-2.1,0-2.8-1.3-2.8-3.2V27.5z"/>
	<path fill="#FFFFFF" d="M114.6,25.9c2.5,0,3.9,1.8,3.9,4.6c0,0.3,0,0.7-0.1,0.9h-6.6c0.1,2.1,1.4,3.4,3.2,3.4
		c0.9,0,1.7-0.3,2.4-0.8l0.6,1.1c-0.8,0.5-1.9,1-3.2,1c-2.6,0-4.7-1.9-4.7-5.1S112.4,25.9,114.6,25.9z M117.1,30.3
		c0-2-0.9-3.1-2.4-3.1c-1.4,0-2.6,1.1-2.8,3.1H117.1z"/>
	<path fill="#FFFFFF" d="M125.2,27.5h-1.4v-1.2l1.5-0.1l0.2-2.7h1.4v2.7h2.6v1.3h-2.6v5.4c0,1.2,0.4,1.9,1.5,1.9
		c0.3,0,0.8-0.1,1.1-0.3l0.3,1.2c-0.5,0.2-1.2,0.4-1.8,0.4c-2.1,0-2.8-1.3-2.8-3.2V27.5z"/>
	<path fill="#FFFFFF" d="M135.3,25.9c2.4,0,4.5,1.9,4.5,5.1c0,3.2-2.1,5.1-4.5,5.1c-2.4,0-4.5-1.9-4.5-5.1
		C130.8,27.8,132.9,25.9,135.3,25.9z M135.3,34.8c1.7,0,2.8-1.5,2.8-3.7c0-2.2-1.1-3.8-2.8-3.8c-1.7,0-2.8,1.5-2.8,3.8
		C132.5,33.3,133.6,34.8,135.3,34.8z"/>
	<path fill="#FFFFFF" d="M149,25.3h-3.6v-2.5h10.1v2.5h-3.6v10.6H149V25.3z"/>
	<path fill="#FFFFFF" d="M160,25.7c2.5,0,4.8,1.9,4.8,5.2s-2.3,5.2-4.8,5.2c-2.5,0-4.8-1.9-4.8-5.2S157.5,25.7,160,25.7z M160,33.7
		c1.2,0,1.8-1.1,1.8-2.8c0-1.7-0.6-2.8-1.8-2.8c-1.2,0-1.8,1.1-1.8,2.8C158.2,32.6,158.8,33.7,160,33.7z"/>
	<path fill="#FFFFFF" d="M166.9,26h2.4l0.2,1.7h0.1c0.7-1.3,1.8-2,2.8-2c0.6,0,0.9,0.1,1.2,0.2l-0.5,2.5c-0.4-0.1-0.7-0.2-1.1-0.2
		c-0.7,0-1.7,0.5-2.2,1.8v5.8h-2.9V26z"/>
	<path fill="#FFFFFF" d="M179.2,22.8h4.8c2.8,0,5.1,1,5.1,4.2c0,3.1-2.3,4.4-5.1,4.4h-1.8v4.4h-3V22.8z M183.8,29.1
		c1.6,0,2.4-0.7,2.4-2.1s-0.8-1.9-2.4-1.9h-1.6v3.9H183.8z"/>
	<path fill="#FFFFFF" d="M191.1,26h2.4l0.2,1.7h0.1c0.7-1.3,1.8-2,2.8-2c0.6,0,0.9,0.1,1.2,0.2l-0.5,2.5c-0.4-0.1-0.7-0.2-1.1-0.2
		c-0.7,0-1.7,0.5-2.2,1.8v5.8h-2.9V26z"/>
	<path fill="#FFFFFF" d="M203.1,25.7c2.5,0,4.8,1.9,4.8,5.2s-2.3,5.2-4.8,5.2c-2.5,0-4.8-1.9-4.8-5.2S200.6,25.7,203.1,25.7z
		 M203.1,33.7c1.2,0,1.8-1.1,1.8-2.8c0-1.7-0.6-2.8-1.8-2.8c-1.2,0-1.8,1.1-1.8,2.8C201.3,32.6,201.9,33.7,203.1,33.7z"/>
	<path fill="#FFFFFF" d="M210,26h2.9v9.9c0,2.2-0.8,4-3.5,4c-0.8,0-1.3-0.1-1.7-0.3l0.5-2.2c0.3,0.1,0.5,0.1,0.8,0.1
		c0.8,0,1-0.5,1-1.6V26z M209.7,23c0-0.9,0.7-1.5,1.7-1.5s1.7,0.6,1.7,1.5s-0.7,1.5-1.7,1.5S209.7,23.9,209.7,23z"/>
	<path fill="#FFFFFF" d="M219.6,25.7c2.8,0,4.2,2.1,4.2,4.8c0,0.5-0.1,1-0.1,1.2h-5.9c0.3,1.5,1.3,2.2,2.6,2.2
		c0.7,0,1.4-0.2,2.1-0.7l1,1.8c-1,0.7-2.3,1.1-3.5,1.1c-2.8,0-5-1.9-5-5.2C214.9,27.7,217.2,25.7,219.6,25.7z M221.3,29.9
		c0-1.1-0.5-1.9-1.7-1.9c-0.9,0-1.7,0.6-1.9,1.9H221.3z"/>
	<path fill="#FFFFFF" d="M230.4,25.7c1.2,0,2.2,0.5,2.9,1.1l-1.3,1.8c-0.5-0.4-0.9-0.6-1.4-0.6c-1.4,0-2.3,1.1-2.3,2.8
		c0,1.7,0.9,2.8,2.2,2.8c0.7,0,1.3-0.3,1.8-0.7l1.2,1.9c-1,0.8-2.2,1.2-3.3,1.2c-2.8,0-4.9-1.9-4.9-5.2S227.7,25.7,230.4,25.7z"/>
	<path fill="#FFFFFF" d="M235.6,28.3h-1.4v-2.2l1.5-0.1l0.3-2.6h2.4V26h2.4v2.3h-2.4v4c0,1.1,0.5,1.6,1.3,1.6c0.3,0,0.7-0.1,0.9-0.2
		l0.5,2.1c-0.5,0.2-1.2,0.4-2.2,0.4c-2.5,0-3.4-1.5-3.4-3.8V28.3z"/>
</g>
<g>
	<path fill="#FFFFFF" d="M47.2,25.6c0-4.2-3.4-7.7-7.7-7.7c-3,0-5.6,1.7-6.9,4.2c-1.3-2.5-3.9-4.2-6.9-4.2c-4.2,0-7.7,3.4-7.7,7.7
		c0,8,12.9,16.8,14.6,16.8C34.3,42.5,47.2,33.7,47.2,25.6z"/>
</g>
</svg>
