<?xml version="1.0" encoding="utf-8"?>
<!-- Generator: Adobe Illustrator 17.1.0, SVG Export Plug-In . SVG Version: 6.00 Build 0)  -->
<!DOCTYPE svg PUBLIC "-//W3C//DTD SVG 1.1//EN" "http://www.w3.org/Graphics/SVG/1.1/DTD/svg11.dtd">
<svg version="1.1" id="Layer_1" xmlns="http://www.w3.org/2000/svg" xmlns:xlink="http://www.w3.org/1999/xlink" x="0px" y="0px"
	 viewBox="0 0 361.4 84.1" enable-background="new 0 0 361.4 84.1" xml:space="preserve">
<g id="layer1_7_" transform="translate(0,-910.62992)" inkscape:label="Layer 1" inkscape:groupmode="layer">
	<g id="rect3940_11_">
		<path sodipodi:nodetypes="ssssccsccssssc" inkscape:connector-curvature="0" fill="#7E4798" d="M30.9,910.6
			C13.8,910.6,0,923.9,0,940.3v24.7c0,16.5,13.8,29.5,30.9,29.7h81.8v-84.1H30.9z M116,910.6v84.1h214.5c17.1,0,30.9-13.2,30.9-29.7
			v-24.7c0-16.5-13.8-29.7-30.9-29.7H116z"/>
	</g>
</g>
<g>
	<path fill="#FFFFFF" d="M136.9,22.7h4.3c5.3,0,8.2,3.1,8.2,8.5c0,5.5-2.8,8.7-8,8.7h-4.4V22.7z M141.1,38.2c4,0,6-2.6,6-6.9
		c0-4.3-2-6.8-6-6.8h-1.9v13.7H141.1z"/>
	<path fill="#FFFFFF" d="M157.9,26.9c3.1,0,5.9,2.4,5.9,6.7c0,4.2-2.8,6.7-5.9,6.7s-5.9-2.4-5.9-6.7
		C151.9,29.3,154.7,26.9,157.9,26.9z M157.9,38.5c2.2,0,3.7-2,3.7-4.9c0-2.9-1.5-4.9-3.7-4.9c-2.2,0-3.7,2-3.7,4.9
		C154.2,36.5,155.7,38.5,157.9,38.5z"/>
	<path fill="#FFFFFF" d="M167.1,27.2h1.8l0.2,1.8h0.1c1.2-1.2,2.5-2.2,4.3-2.2c2.7,0,3.9,1.7,3.9,5V40h-2.2v-7.8
		c0-2.4-0.7-3.4-2.4-3.4c-1.3,0-2.2,0.7-3.5,2V40h-2.2V27.2z"/>
	<path fill="#FFFFFF" d="M188.7,31.9c0-1.6-0.6-3.2-2.6-3.2c-1.5,0-2.8,0.7-3.8,1.4l-0.9-1.5c1.2-0.8,3-1.7,5-1.7
		c3.1,0,4.4,2.1,4.4,5.3V40h-1.8l-0.2-1.5h-0.1c-1.2,1-2.7,1.8-4.2,1.8c-2.2,0-3.8-1.3-3.8-3.6C180.9,33.9,183.3,32.5,188.7,31.9z
		 M185.3,38.5c1.2,0,2.3-0.6,3.5-1.7v-3.5c-4.3,0.5-5.7,1.6-5.7,3.2C183,37.9,184,38.5,185.3,38.5z"/>
	<path fill="#FFFFFF" d="M195.4,28.9h-1.9v-1.6l2-0.1l0.3-3.6h1.8v3.6h3.4v1.8h-3.4V36c0,1.6,0.5,2.5,2,2.5c0.4,0,1-0.2,1.4-0.3
		l0.4,1.6c-0.7,0.2-1.6,0.5-2.4,0.5c-2.7,0-3.7-1.7-3.7-4.3V28.9z"/>
	<path fill="#FFFFFF" d="M208.4,26.9c3.3,0,5.1,2.3,5.1,6c0,0.4,0,0.9-0.1,1.2h-8.6c0.2,2.8,1.8,4.5,4.3,4.5c1.2,0,2.2-0.4,3.2-1
		L213,39c-1.1,0.7-2.5,1.3-4.2,1.3c-3.4,0-6.1-2.5-6.1-6.7C202.7,29.4,205.5,26.9,208.4,26.9z M211.6,32.6c0-2.6-1.2-4-3.2-4
		c-1.8,0-3.4,1.5-3.7,4H211.6z"/>
	<path fill="#FFFFFF" d="M222.3,28.9h-1.9v-1.6l2-0.1l0.3-3.6h1.8v3.6h3.4v1.8h-3.4V36c0,1.6,0.5,2.5,2,2.5c0.4,0,1-0.2,1.4-0.3
		l0.4,1.6c-0.7,0.2-1.6,0.5-2.4,0.5c-2.7,0-3.7-1.7-3.7-4.3V28.9z"/>
	<path fill="#FFFFFF" d="M235.6,26.9c3.1,0,5.9,2.4,5.9,6.7c0,4.2-2.8,6.7-5.9,6.7s-5.9-2.4-5.9-6.7
		C229.6,29.3,232.4,26.9,235.6,26.9z M235.6,38.5c2.2,0,3.7-2,3.7-4.9c0-2.9-1.5-4.9-3.7-4.9c-2.2,0-3.7,2-3.7,4.9
		C231.9,36.5,233.4,38.5,235.6,38.5z"/>
	<path fill="#FFFFFF" d="M140,49.3h-4.7V46h13.3v3.3h-4.7v13.9H140V49.3z"/>
	<path fill="#FFFFFF" d="M154.5,49.8c3.3,0,6.3,2.5,6.3,6.8s-3,6.8-6.3,6.8c-3.3,0-6.4-2.5-6.4-6.8S151.2,49.8,154.5,49.8z
		 M154.5,60.4c1.6,0,2.4-1.4,2.4-3.7c0-2.3-0.8-3.7-2.4-3.7c-1.6,0-2.4,1.4-2.4,3.7C152.1,58.9,152.9,60.4,154.5,60.4z"/>
	<path fill="#FFFFFF" d="M163.5,50.1h3.2l0.3,2.3h0.1c0.9-1.8,2.4-2.6,3.7-2.6c0.7,0,1.2,0.1,1.6,0.3l-0.6,3.3
		c-0.5-0.1-0.9-0.2-1.4-0.2c-1,0-2.2,0.6-2.9,2.4v7.6h-3.9V50.1z"/>
	<path fill="#FFFFFF" d="M179.8,46h6.3c3.7,0,6.7,1.4,6.7,5.5c0,4-3.1,5.8-6.7,5.8h-2.4v5.8h-3.9V46z M185.8,54.3
		c2.1,0,3.2-0.9,3.2-2.7c0-1.8-1.1-2.4-3.2-2.4h-2.1v5.2H185.8z"/>
	<path fill="#FFFFFF" d="M195.4,50.1h3.2l0.3,2.3h0.1c0.9-1.8,2.4-2.6,3.7-2.6c0.7,0,1.2,0.1,1.6,0.3l-0.6,3.3
		c-0.5-0.1-0.9-0.2-1.4-0.2c-1,0-2.2,0.6-2.9,2.4v7.6h-3.9V50.1z"/>
	<path fill="#FFFFFF" d="M211.2,49.8c3.3,0,6.3,2.5,6.3,6.8s-3,6.8-6.3,6.8c-3.3,0-6.4-2.5-6.4-6.8S207.9,49.8,211.2,49.8z
		 M211.2,60.4c1.6,0,2.4-1.4,2.4-3.7c0-2.3-0.8-3.7-2.4-3.7c-1.6,0-2.4,1.4-2.4,3.7C208.8,58.9,209.6,60.4,211.2,60.4z"/>
	<path fill="#FFFFFF" d="M220.2,50.1h3.9v13c0,2.8-1.1,5.2-4.7,5.2c-1.1,0-1.8-0.2-2.3-0.4l0.7-2.8c0.3,0.1,0.7,0.2,1,0.2
		c1,0,1.4-0.7,1.4-2.1V50.1z M219.9,46.2c0-1.2,0.9-2,2.2-2s2.2,0.8,2.2,2c0,1.2-0.9,2-2.2,2S219.9,47.4,219.9,46.2z"/>
	<path fill="#FFFFFF" d="M232.9,49.8c3.7,0,5.5,2.7,5.5,6.3c0,0.7-0.1,1.3-0.2,1.6h-7.8c0.3,2,1.7,2.8,3.4,2.8c1,0,1.9-0.3,2.8-0.9
		L238,62c-1.3,0.9-3.1,1.5-4.6,1.5c-3.7,0-6.6-2.5-6.6-6.8C226.7,52.4,229.8,49.8,232.9,49.8z M235.1,55.3c0-1.5-0.6-2.6-2.2-2.6
		c-1.2,0-2.3,0.8-2.5,2.6H235.1z"/>
	<path fill="#FFFFFF" d="M247.1,49.8c1.6,0,2.9,0.6,3.8,1.5l-1.8,2.4c-0.6-0.5-1.2-0.8-1.8-0.8c-1.9,0-3,1.4-3,3.7
		c0,2.3,1.2,3.7,2.9,3.7c0.9,0,1.7-0.4,2.3-0.9l1.6,2.4c-1.3,1.1-2.9,1.6-4.3,1.6c-3.6,0-6.4-2.5-6.4-6.8S243.5,49.8,247.1,49.8z"/>
	<path fill="#FFFFFF" d="M253.9,53.1h-1.8v-2.9l2-0.2l0.4-3.5h3.2v3.5h3.1v3h-3.1v5.2c0,1.5,0.7,2.1,1.7,2.1c0.4,0,0.9-0.1,1.2-0.3
		l0.6,2.8c-0.7,0.2-1.6,0.5-2.9,0.5c-3.2,0-4.5-2-4.5-5V53.1z"/>
</g>
<g>
	<g>
		<path fill="#FFFFFF" d="M49,63.5c-0.2-1-0.4-1.8-0.2-2.8c1.1-4.1,3.6-5.7,6.2-7.4c0.6-0.4,1.2-0.7,1.8-1.1c1-0.8,1.6-3.1,2.2-5.1
			c-0.3,1.5-0.6,4.3-2,5.4c-0.6,0.4-1.1,0.8-1.8,1.2c-2.4,1.7-4.9,3.2-6,7.2c-0.2,0.8,0,1.8,0.2,2.6c0.1,0.5,0.3,1,0.5,1.4
			c0.7,0.6,1.5,1.1,2.2,1.6c-0.1-0.5-0.2-1-0.2-1.6c-0.1-2.4,1.3-4.8,4.1-6.3c2-1,2.5-2.6,3.1-4.5c-0.4,2.2-0.9,3.5-2.9,4.7
			c-2.4,1.4-4.1,4.1-3.9,6c0.1,0.8,0.3,1.5,0.6,2.3c1.6,1.1,3,1.9,4.2,2.6c-0.2-0.6-0.5-1.3-0.5-1.9c0-1.4,0.2-3.2,1.2-4.4
			c0.9-1.1,1.2-1.2,1.6-2.6c-0.3,1.5-0.5,1.6-1.4,2.9c-1.1,1.6-1.2,3.2-1,4.2c0.1,0.7,0.3,1.3,0.5,1.8c0.1,0.1,0.1,0.3,0.2,0.4
			c1,0.5,1.8,0.8,2.2,0.8c0,0,0.1,0,0.1,0c0.2-1,0.4-2,0.4-2.7c0-1,0.1-2.2-0.1-3.3c-0.2-1.5-0.7-3.1-0.7-4.2v0l0,0v0
			c0.2,1.1,0.8,2.6,1.1,4.1c0.2,1.2,0.3,2.4,0.2,3.3c-0.1,1-0.1,1.9-0.3,2.7c0.2-0.1,0.5-0.2,0.8-0.3c0.2-0.5,0.4-1,0.5-1.5
			c0.4-2,0.5-3.9,0.5-4.9c0-0.9-0.4-2.3-0.7-3.6c-0.3-1-1.2-2-1.4-2.7c-0.4-1.2-0.3-2.1-0.3-3.9c0.2,1.6,0.2,3,0.6,3.6
			c0.4,0.6,0.9,1.5,1.3,2.5c0.7,1.7,1,3.5,1.1,4.3c0,1.4-0.2,3.7-0.7,5.5c0,0.2-0.1,0.3-0.2,0.5c0.1,0,0.2-0.1,0.2-0.1
			c0.2-0.5,0.4-1,0.5-1.4c0.7-3.1,1.2-6.3,0.8-8.2c-0.1-0.4-0.2-1.9-0.8-3.5c-0.9-2.3-2.1-4.2-2.3-4.7c-0.5-1.3-0.6-4.5-0.6-6.3
			c0.1,2.1,0.5,5.2,0.8,5.9c0.2,0.4,1.5,2.6,2.5,4.9c0.6,1.5,0.8,2.9,0.9,3.3c0.5,4.2,0.1,5.9-1,9.7c0,0.1-0.1,0.1-0.1,0.2
			c0.1-0.1,0.3-0.2,0.5-0.2c0.2-0.4,0.4-0.8,0.4-1.1c1.1-4.7,1.4-10.7,0-15.3c-0.8-2.4-2.7-4.5-3-5.9c-0.3-1.3-0.3-2.7-0.2-4.5l0,0
			v0l-3.8-1.7c0.2,0.3,0.9,1.9,1,2.3c0.3,1.2,0.2,2.5-0.1,3c-1.4,2.5-3.7,3.2-5.5,4.6c-3,2.5-6.3,4.5-6,11.2c1,0.9,2,1.7,3,2.4
			C49.2,64,49.1,63.8,49,63.5z"/>
	</g>
	<g>
		<path fill="#FFFFFF" d="M90.7,35.2c0-9-7.3-16.2-16.2-16.2c-6.3,0-11.8,3.6-14.5,8.9c-2.7-5.3-8.1-8.9-14.5-8.9
			c-9,0-16.2,7.3-16.2,16.2c0,9.2,8,18.8,15.8,25.7c0-3.4,0.9-6.2,3.7-9c1.6-1.7,4.8-3.5,7-5.1c1.1-0.7,2.2-2.8,0-6.8l0.4-0.3l2.5,1
			c0.5-3.1,1.7-6.2,3.4-9.3L61,36.3c1.7-3.4,4.4-6,7.6-8.2c-2.3,2.7-4.4,5.3-5.7,8c2.2-3,5.1-4.7,8.3-5.8c-4.1,3.7-7.4,7.6-10,11.5
			l1.6,0.7c-0.9,2.9,1.7,4.9,2.6,5.4c1.9,1,3.7,2.1,5.2,3.4c2.7,2.5,4.3,6,4.3,9.7C82.7,54,90.7,44.4,90.7,35.2z"/>
	</g>
	<g>
		<polygon fill="#7E4798" points="59.8,60.4 59.8,60.4 59.8,60.4 		"/>
	</g>
	<g>
		<path fill="#7E4798" d="M60,73C60,73,60,73,60,73l0.1,0C60.1,73,60,73,60,73z"/>
	</g>
</g>
</svg>
