<?xml version="1.0" encoding="utf-8"?>
<!-- Generator: Adobe Illustrator 17.1.0, SVG Export Plug-In . SVG Version: 6.00 Build 0)  -->
<!DOCTYPE svg PUBLIC "-//W3C//DTD SVG 1.1//EN" "http://www.w3.org/Graphics/SVG/1.1/DTD/svg11.dtd">
<svg version="1.1" id="Layer_1" xmlns="http://www.w3.org/2000/svg" xmlns:xlink="http://www.w3.org/1999/xlink" x="0px" y="0px"
	 viewBox="0 0 95.7 95.7" enable-background="new 0 0 95.7 95.7" xml:space="preserve">
<g>
	<g>
		<path fill="#010101" d="M23.4,73.4c2.5-8.9,7.9-12.4,13.3-16c1.4-0.9,2.6-1.8,3.9-2.7c3-2.3,3.8-8.6,4.4-12.1
			c-1.3,4.3-2.6,9.6-4.9,11.3c-1.2,1-2.7,1.7-4,2.6c-5.7,3.8-11.2,7.5-13.8,16.7c-0.6,2.3-0.2,4.1,0.4,6.3c1.1,4.3,3.6,8.9,6.1,12.4
			c0.6,0.3,1.3,0.5,1.9,0.8c-2.8-3.5-5.9-8.6-7.1-13.4C23.3,77.3,22.9,75.3,23.4,73.4z"/>
	</g>
	<g>
		<path fill="#010101" d="M38.9,68.7c4.5-2.6,5.6-5.6,6.6-10.5c-1.4,4.2-2.6,7.8-7,10c-6.3,3.3-9.6,8.9-9.3,14.2
			c0.3,4.5,1.6,8.1,4,11c0.9,0.3,1.8,0.6,2.7,0.8c-3-3.4-5.5-8.1-5.8-12.2C29.8,77.9,33.6,71.8,38.9,68.7z"/>
	</g>
	<g>
		<path fill="#010101" d="M40.1,41.3c2.4-2.1,2-6.8-0.3-12.8l4.4,1.9C45,23,47.8,15.3,52,8l-2.7,10.8c3.3-6.5,8.3-11.7,14-16.2
			C58.5,0.9,53.3,0,47.9,0C21.4,0,0,21.4,0,47.9c0,15,6.9,28.4,17.7,37.2c-2-4.4-3-9.2-3-13.9C14.8,57.9,30.6,49.1,40.1,41.3z"/>
	</g>
	<g>
		<path fill="#010101" d="M40.8,89c-0.3-2.3-0.2-5.8,2.3-9.4c2-2.9,2.4-3.1,3.1-6.4c-0.9,2.9-1.6,3.2-3.7,5.7
			c-2.3,2.7-2.7,6.7-2.7,9.9c0,1.4,0.5,2.9,1.1,4.3c0.3,0.8,0.6,1.5,0.9,2.2c0.5,0.1,1,0.1,1.4,0.2c-0.5-0.8-0.8-1.7-1.2-2.6
			C41.6,91.8,41,90.5,40.8,89z"/>
	</g>
	<g>
		<path fill="#010101" d="M70.6,5.7c-2.1-1.1-4.2-2.1-6.5-2.9C59.8,8,56,13.1,53.6,18.2C58,11.9,63.9,8.2,70.6,5.7z"/>
	</g>
	<g>
		<path fill="#010101" d="M54.2,80.4c-0.1-1.9-0.9-6-2.4-9.7c-0.8-2-2.1-4.1-2.9-5.5c-0.9-1.4-0.9-4.5-1.4-8.1
			c0.1,3.9-0.3,5.9,0.7,8.7c0.6,1.7,2.6,3.9,3.2,6.1c0.8,2.9,1.7,6.2,1.7,8.1c0,2.3-0.1,6.5-1.1,11c-0.3,1.7-0.9,3.2-1.6,4.6
			c0.4,0,0.9-0.1,1.3-0.1c0.4-0.9,0.8-1.8,1.1-2.8C53.9,88.8,54.3,83.7,54.2,80.4z"/>
	</g>
	<g>
		<path fill="#010101" d="M56.5,70.7c-0.1-0.9-0.5-4-2-7.3c-2.1-5-5.1-9.9-5.5-10.8c-0.7-1.6-1.6-8.4-1.7-13.1
			c0.1,3.9,0.4,11.2,1.4,14.1c0.3,1,3.1,5.3,5,10.5c1.4,3.6,1.7,6.9,1.9,7.9c0.9,4.3-0.2,11.5-1.7,18.4c-0.3,1.6-1.1,3.5-2.1,5.3
			c0.4,0,0.8-0.1,1.1-0.1c0.5-1,1-2,1.3-3C56.6,84,57.6,80.1,56.5,70.7z"/>
	</g>
	<g>
		<path fill="#010101" d="M49.8,89.1c0.2-2,0.1-4.6-0.5-7.3c-0.8-3.4-2-6.8-2.6-9.3c0.1,2.6,1.1,6,1.6,9.5c0.4,2.6,0.2,5.1,0.1,7.4
			c0,1.7-0.4,4.1-1,6.3c0.1,0,0.2,0,0.3,0c0.4,0,0.8,0,1.2,0c0-0.1,0.1-0.2,0.1-0.3C49.5,93.4,49.6,91.4,49.8,89.1z"/>
	</g>
	<g>
		<path fill="#010101" d="M95.7,47.9c0-18-9.9-33.6-24.5-41.8c-9.3,8.4-16.7,17.4-22.3,26.4c0,0.1-0.8,6.3,0.3,10.1
			c1,3.2,5,7.9,6.8,13.3C59.3,66,58.5,79.5,56,89.9c-0.4,1.7-1.5,3.7-3,5.5c1.2-0.1,2.3-0.3,3.4-0.5c0.4-0.8,0.8-1.6,1.2-2.5
			c2.8-7.5,3.3-16.3,2.2-25.7c-0.1-0.9-1.6-9-3-12.4c-2-5-5.4-8.5-6.4-11.7c-1.5-4.5-0.7-10-0.7-10.1l2.2,1c-0.3,2.1,0.1,6.8,2.3,8
			c9.3,5.8,18.2,12.1,21.6,18.5c5.4,9.8,4.4,19.2,0,26.6C87.9,78,95.7,63.9,95.7,47.9z"/>
	</g>
</g>
</svg>
